<mxfile host="app.diagrams.net" agent="Mozilla/5.0 (Macintosh; Intel Mac OS X 10_15_7) AppleWebKit/537.36 (KHTML, like Gecko) Chrome/131.0.0.0 Safari/537.36" version="25.0.3">
  <diagram name="Page-1" id="a6vlqND8cUGmmppN5UqU">
    <mxGraphModel dx="954" dy="639" grid="1" gridSize="10" guides="1" tooltips="1" connect="1" arrows="1" fold="1" page="1" pageScale="1" pageWidth="850" pageHeight="1100" math="0" shadow="0">
      <root>
        <mxCell id="0" />
        <mxCell id="1" parent="0" />
        <mxCell id="gVLmV8KYjzuMkhQTZmCR-1" value="&lt;div&gt;&lt;br&gt;&lt;/div&gt;&lt;div&gt;USER&lt;/div&gt;(&lt;span style=&quot;background-color: initial;&quot;&gt;INDIA)&lt;/span&gt;" style="shape=actor;whiteSpace=wrap;html=1;" vertex="1" parent="1">
          <mxGeometry x="80" y="80" width="80" height="80" as="geometry" />
        </mxCell>
        <mxCell id="gVLmV8KYjzuMkhQTZmCR-2" value="&lt;div&gt;&lt;br&gt;&lt;/div&gt;&lt;div&gt;USER&lt;/div&gt;(LONDON)" style="shape=actor;whiteSpace=wrap;html=1;" vertex="1" parent="1">
          <mxGeometry x="645" y="80" width="80" height="80" as="geometry" />
        </mxCell>
        <mxCell id="gVLmV8KYjzuMkhQTZmCR-3" value="ROUTE 53&lt;div&gt;(DNS)&lt;/div&gt;" style="ellipse;shape=cloud;whiteSpace=wrap;html=1;" vertex="1" parent="1">
          <mxGeometry x="320" y="120" width="180" height="140" as="geometry" />
        </mxCell>
        <mxCell id="gVLmV8KYjzuMkhQTZmCR-4" value="GLOBAL NETWORK&lt;div&gt;(EDGE LOCATION)&lt;/div&gt;" style="html=1;verticalLabelPosition=bottom;align=center;labelBackgroundColor=#ffffff;verticalAlign=top;strokeWidth=2;strokeColor=#0080F0;shadow=0;dashed=0;shape=mxgraph.ios7.icons.cloud;" vertex="1" parent="1">
          <mxGeometry x="65" y="230" width="110" height="80" as="geometry" />
        </mxCell>
        <mxCell id="gVLmV8KYjzuMkhQTZmCR-5" value="CLOUDFRONT&lt;div&gt;(EDGE LOCATION)&lt;/div&gt;" style="html=1;verticalLabelPosition=bottom;align=center;labelBackgroundColor=#ffffff;verticalAlign=top;strokeWidth=2;strokeColor=#0080F0;shadow=0;dashed=0;shape=mxgraph.ios7.icons.cloud;" vertex="1" parent="1">
          <mxGeometry x="620" y="271" width="130" height="90" as="geometry" />
        </mxCell>
        <mxCell id="gVLmV8KYjzuMkhQTZmCR-6" value="(EDGE LOCATION)" style="html=1;verticalLabelPosition=bottom;align=center;labelBackgroundColor=#ffffff;verticalAlign=top;strokeWidth=2;strokeColor=#0080F0;shadow=0;dashed=0;shape=mxgraph.ios7.icons.cloud;" vertex="1" parent="1">
          <mxGeometry x="330" y="320" width="160" height="90" as="geometry" />
        </mxCell>
        <mxCell id="gVLmV8KYjzuMkhQTZmCR-7" value="S3 (Static Website)" style="sketch=0;outlineConnect=0;fontColor=#232F3E;gradientColor=none;fillColor=#7AA116;strokeColor=none;dashed=0;verticalLabelPosition=bottom;verticalAlign=top;align=center;html=1;fontSize=12;fontStyle=0;aspect=fixed;pointerEvents=1;shape=mxgraph.aws4.bucket;" vertex="1" parent="1">
          <mxGeometry x="90" y="480" width="75" height="78" as="geometry" />
        </mxCell>
        <mxCell id="gVLmV8KYjzuMkhQTZmCR-8" value="S3 (Static Website)" style="sketch=0;outlineConnect=0;fontColor=#232F3E;gradientColor=none;fillColor=#7AA116;strokeColor=none;dashed=0;verticalLabelPosition=bottom;verticalAlign=top;align=center;html=1;fontSize=12;fontStyle=0;aspect=fixed;pointerEvents=1;shape=mxgraph.aws4.bucket;" vertex="1" parent="1">
          <mxGeometry x="642.5" y="480" width="75" height="78" as="geometry" />
        </mxCell>
        <mxCell id="gVLmV8KYjzuMkhQTZmCR-9" value="" style="endArrow=classic;html=1;rounded=0;" edge="1" parent="1">
          <mxGeometry width="50" height="50" relative="1" as="geometry">
            <mxPoint x="346.48648648648646" y="350" as="sourcePoint" />
            <mxPoint x="180" y="210" as="targetPoint" />
            <Array as="points" />
          </mxGeometry>
        </mxCell>
        <mxCell id="gVLmV8KYjzuMkhQTZmCR-10" value="" style="html=1;labelBackgroundColor=#ffffff;endArrow=classic;endFill=1;endSize=6;jettySize=auto;orthogonalLoop=1;strokeWidth=1;fontSize=14;rounded=0;" edge="1" parent="1">
          <mxGeometry width="60" height="60" relative="1" as="geometry">
            <mxPoint x="330" y="200" as="sourcePoint" />
            <mxPoint x="190" y="180" as="targetPoint" />
          </mxGeometry>
        </mxCell>
        <mxCell id="gVLmV8KYjzuMkhQTZmCR-11" value="" style="endArrow=classic;html=1;rounded=0;exitX=0.84;exitY=0.769;exitDx=0;exitDy=0;exitPerimeter=0;entryX=0.14;entryY=0.795;entryDx=0;entryDy=0;entryPerimeter=0;" edge="1" parent="1" source="gVLmV8KYjzuMkhQTZmCR-7" target="gVLmV8KYjzuMkhQTZmCR-8">
          <mxGeometry relative="1" as="geometry">
            <mxPoint x="215" y="540" as="sourcePoint" />
            <mxPoint x="605" y="540" as="targetPoint" />
          </mxGeometry>
        </mxCell>
        <mxCell id="gVLmV8KYjzuMkhQTZmCR-12" value="&lt;font size=&quot;1&quot;&gt;S3&lt;/font&gt;&lt;div&gt;&lt;font size=&quot;1&quot;&gt;WEBSITE CONTENT&lt;/font&gt;&lt;/div&gt;" style="edgeLabel;resizable=0;html=1;;align=center;verticalAlign=middle;" connectable="0" vertex="1" parent="gVLmV8KYjzuMkhQTZmCR-11">
          <mxGeometry relative="1" as="geometry" />
        </mxCell>
        <mxCell id="gVLmV8KYjzuMkhQTZmCR-13" value="" style="endArrow=classic;html=1;rounded=0;" edge="1" parent="1">
          <mxGeometry width="50" height="50" relative="1" as="geometry">
            <mxPoint x="500" y="180" as="sourcePoint" />
            <mxPoint x="620" y="160" as="targetPoint" />
          </mxGeometry>
        </mxCell>
        <mxCell id="gVLmV8KYjzuMkhQTZmCR-14" value="" style="endArrow=classic;html=1;rounded=0;" edge="1" parent="1">
          <mxGeometry width="50" height="50" relative="1" as="geometry">
            <mxPoint x="480" y="340" as="sourcePoint" />
            <mxPoint x="640" y="180" as="targetPoint" />
          </mxGeometry>
        </mxCell>
        <mxCell id="gVLmV8KYjzuMkhQTZmCR-15" value="" style="endArrow=none;dashed=1;html=1;rounded=0;" edge="1" parent="1">
          <mxGeometry width="50" height="50" relative="1" as="geometry">
            <mxPoint x="190" y="350" as="sourcePoint" />
            <mxPoint x="320" y="350" as="targetPoint" />
          </mxGeometry>
        </mxCell>
        <mxCell id="gVLmV8KYjzuMkhQTZmCR-16" value="" style="endArrow=none;dashed=1;html=1;rounded=0;entryX=0.023;entryY=0.833;entryDx=0;entryDy=0;entryPerimeter=0;exitX=0.844;exitY=0.311;exitDx=0;exitDy=0;exitPerimeter=0;" edge="1" parent="1" source="gVLmV8KYjzuMkhQTZmCR-6" target="gVLmV8KYjzuMkhQTZmCR-5">
          <mxGeometry width="50" height="50" relative="1" as="geometry">
            <mxPoint x="500" y="350" as="sourcePoint" />
            <mxPoint x="610" y="350" as="targetPoint" />
          </mxGeometry>
        </mxCell>
        <mxCell id="gVLmV8KYjzuMkhQTZmCR-17" value="" style="endArrow=classic;html=1;rounded=0;entryX=-0.006;entryY=0.756;entryDx=0;entryDy=0;entryPerimeter=0;" edge="1" parent="1" source="gVLmV8KYjzuMkhQTZmCR-7" target="gVLmV8KYjzuMkhQTZmCR-6">
          <mxGeometry width="50" height="50" relative="1" as="geometry">
            <mxPoint x="170" y="490" as="sourcePoint" />
            <mxPoint x="320" y="390" as="targetPoint" />
          </mxGeometry>
        </mxCell>
        <mxCell id="gVLmV8KYjzuMkhQTZmCR-18" value="" style="endArrow=classic;html=1;rounded=0;entryX=0.994;entryY=0.878;entryDx=0;entryDy=0;entryPerimeter=0;" edge="1" parent="1" source="gVLmV8KYjzuMkhQTZmCR-8" target="gVLmV8KYjzuMkhQTZmCR-6">
          <mxGeometry width="50" height="50" relative="1" as="geometry">
            <mxPoint x="630" y="480" as="sourcePoint" />
            <mxPoint x="510" y="400" as="targetPoint" />
          </mxGeometry>
        </mxCell>
        <mxCell id="gVLmV8KYjzuMkhQTZmCR-19" value="" style="endArrow=none;dashed=1;html=1;dashPattern=1 3;strokeWidth=2;rounded=0;" edge="1" parent="1">
          <mxGeometry width="50" height="50" relative="1" as="geometry">
            <mxPoint x="119.5" y="460" as="sourcePoint" />
            <mxPoint x="120" y="360" as="targetPoint" />
          </mxGeometry>
        </mxCell>
        <mxCell id="gVLmV8KYjzuMkhQTZmCR-20" value="" style="endArrow=none;dashed=1;html=1;dashPattern=1 3;strokeWidth=2;rounded=0;" edge="1" parent="1">
          <mxGeometry width="50" height="50" relative="1" as="geometry">
            <mxPoint x="680" y="470" as="sourcePoint" />
            <mxPoint x="680" y="400" as="targetPoint" />
          </mxGeometry>
        </mxCell>
      </root>
    </mxGraphModel>
  </diagram>
</mxfile>
